<?xml version="1.0" encoding="UTF-8"?>
<!DOCTYPE svg PUBLIC "-//W3C//DTD SVG 1.1//EN" "http://www.w3.org/Graphics/SVG/1.1/DTD/svg11.dtd">
<!-- Creator: CorelDRAW -->
<svg xmlns="http://www.w3.org/2000/svg" xml:space="preserve" width="153.989mm" height="70.1998mm" version="1.1" style="shape-rendering:geometricPrecision; text-rendering:geometricPrecision; image-rendering:optimizeQuality; fill-rule:evenodd; clip-rule:evenodd"
viewBox="0 0 5428.23 2474.6"
 xmlns:xlink="http://www.w3.org/1999/xlink"
 xmlns:xodm="http://www.corel.com/coreldraw/odm/2003">
 <defs>
  <style type="text/css">
   <![CDATA[
    .str0 {stroke:#FEFEFE;stroke-width:2.69;stroke-miterlimit:22.9256}
    .fil0 {fill:none;fill-rule:nonzero}
    .fil2 {fill:#FEFEFE}
    .fil1 {fill:#FEFEFE;fill-rule:nonzero}
   ]]>
  </style>
 </defs>
 <g id="Camada_x0020_1">
  <metadata id="CorelCorpID_0Corel-Layer"/>
  <g>
   <path class="fil0 str0" d="M186.42 1883.42l252.94 0 -127 -294.75 -125.94 294.75zm-185.26 256.88l281.54 -665.65 59.33 0 284.73 665.65 -77.63 0 -77.97 -179.07 -317.42 0 -76.02 179.07 -76.56 0zm781.02 -369.26l253.65 0c36.06,0 63.41,-9.26 81.88,-27.79 18.65,-18.32 27.89,-45.49 27.89,-81.3 0,-34.79 -9.24,-62.16 -27.89,-81.51 -18.47,-19.55 -44.58,-29.23 -78.33,-29.23l-257.2 0 0 219.83zm-71.41 369.26l0 -665.65 329.67 0c56.13,0 100,16.47 131.98,49.19 31.8,32.73 47.78,78.01 47.78,135.85 0,48.16 -12.43,89.33 -37.3,123.7 -25.05,34.37 -57.91,55.78 -98.76,64.22l143.52 292.69 -78.87 0 -143.7 -291.46 -222.92 0 0 291.46 -71.41 0zm707.84 -369.26l253.65 0c36.06,0 63.41,-9.26 81.89,-27.79 18.65,-18.32 27.89,-45.49 27.89,-81.3 0,-34.79 -9.24,-62.16 -27.89,-81.51 -18.47,-19.55 -44.59,-29.23 -78.33,-29.23l-257.2 0 0 219.83zm-71.4 369.26l0 -665.65 329.67 0c56.13,0 100.01,16.47 131.98,49.19 31.79,32.73 47.78,78.01 47.78,135.85 0,48.16 -12.43,89.33 -37.3,123.7 -25.04,34.37 -57.9,55.78 -98.76,64.22l143.52 292.69 -78.87 0 -143.7 -291.46 -222.92 0 0 291.46 -71.4 0zm640.69 0l0 -669.36 72.47 0 0 669.36 -72.47 0zm473.02 0l-44.76 0 -276.92 -665.65 77.62 0 221.67 533.51 221.68 -533.51 79.04 0 -278.34 665.65zm402.85 -256.88l252.94 0 -127 -294.75 -125.94 294.75zm-185.26 256.88l281.54 -665.65 59.32 0 284.73 665.65 -77.62 0 -77.98 -179.07 -317.42 0 -76.02 179.07 -76.55 0zm784.22 -402.6l274.61 0c30.2,0 53.29,-8.03 69.1,-23.88 15.99,-15.85 23.98,-38.69 23.98,-68.54 0,-31.29 -7.64,-54.75 -23.09,-70.6 -15.45,-15.64 -38.72,-23.46 -69.99,-23.46l-274.61 0 0 186.48zm0 326.03l300.54 0c32.68,0 58.44,-11.11 77.27,-33.34 18.83,-22.44 28.24,-52.9 28.24,-91.39 0,-38.08 -9.42,-68.54 -28.24,-90.98 -18.83,-22.44 -44.58,-33.76 -77.27,-33.76l-300.54 0 0 249.47zm-71.41 76.57l0 -665.65 339.8 0c56.49,0 99.29,13.99 128.25,41.99 28.95,27.99 43.52,69.16 43.52,123.91 0,26.55 -4.44,50.23 -13.5,71.22 -9.06,21 -21.85,37.87 -38.55,50.63 30.56,20.58 53.64,45.7 69.1,75.33 15.63,29.85 23.45,63.81 23.45,102.51 0,61.54 -17.41,110.12 -52.22,146.14 -34.99,36.02 -82.24,53.93 -141.92,53.93l-357.91 0zm695.76 0l0 -665.65 451.88 0 0 76.57 -380.48 0 0 195.13 230.2 0 0 76.57 -230.2 0 0 240.82 403.92 0 0 76.57 -475.32 0zm581.72 0l0 -665.65 37.48 0 372.84 497.49 0 -497.49 71.4 0 0 665.65 -36.41 0 -373.9 -497.49 0 497.49 -71.4 0zm654.19 0l0 -669.36 72.47 0 0 669.36 -72.47 0z"/>
   <path id="_1" class="fil1" d="M186.42 1883.42l252.94 0 -127 -294.75 -125.94 294.75zm-185.26 256.88l281.54 -665.65 59.33 0 284.73 665.65 -77.63 0 -77.97 -179.07 -317.42 0 -76.02 179.07 -76.56 0zm781.02 -369.26l253.65 0c36.06,0 63.41,-9.26 81.88,-27.79 18.65,-18.32 27.89,-45.49 27.89,-81.3 0,-34.79 -9.24,-62.16 -27.89,-81.51 -18.47,-19.55 -44.58,-29.23 -78.33,-29.23l-257.2 0 0 219.83zm-71.41 369.26l0 -665.65 329.67 0c56.13,0 100,16.47 131.98,49.19 31.8,32.73 47.78,78.01 47.78,135.85 0,48.16 -12.43,89.33 -37.3,123.7 -25.05,34.37 -57.91,55.78 -98.76,64.22l143.52 292.69 -78.87 0 -143.7 -291.46 -222.92 0 0 291.46 -71.41 0zm707.84 -369.26l253.65 0c36.06,0 63.41,-9.26 81.89,-27.79 18.65,-18.32 27.89,-45.49 27.89,-81.3 0,-34.79 -9.24,-62.16 -27.89,-81.51 -18.47,-19.55 -44.59,-29.23 -78.33,-29.23l-257.2 0 0 219.83zm-71.4 369.26l0 -665.65 329.67 0c56.13,0 100.01,16.47 131.98,49.19 31.79,32.73 47.78,78.01 47.78,135.85 0,48.16 -12.43,89.33 -37.3,123.7 -25.04,34.37 -57.9,55.78 -98.76,64.22l143.52 292.69 -78.87 0 -143.7 -291.46 -222.92 0 0 291.46 -71.4 0zm640.69 0l0 -669.36 72.47 0 0 669.36 -72.47 0zm473.02 0l-44.76 0 -276.92 -665.65 77.62 0 221.67 533.51 221.68 -533.51 79.04 0 -278.34 665.65zm402.85 -256.88l252.94 0 -127 -294.75 -125.94 294.75zm-185.26 256.88l281.54 -665.65 59.32 0 284.73 665.65 -77.62 0 -77.98 -179.07 -317.42 0 -76.02 179.07 -76.55 0zm784.22 -402.6l274.61 0c30.2,0 53.29,-8.03 69.1,-23.88 15.99,-15.85 23.98,-38.69 23.98,-68.54 0,-31.29 -7.64,-54.75 -23.09,-70.6 -15.45,-15.64 -38.72,-23.46 -69.99,-23.46l-274.61 0 0 186.48zm0 326.03l300.54 0c32.68,0 58.44,-11.11 77.27,-33.34 18.83,-22.44 28.24,-52.9 28.24,-91.39 0,-38.08 -9.42,-68.54 -28.24,-90.98 -18.83,-22.44 -44.58,-33.76 -77.27,-33.76l-300.54 0 0 249.47zm-71.41 76.57l0 -665.65 339.8 0c56.49,0 99.29,13.99 128.25,41.99 28.95,27.99 43.52,69.16 43.52,123.91 0,26.55 -4.44,50.23 -13.5,71.22 -9.06,21 -21.85,37.87 -38.55,50.63 30.56,20.58 53.64,45.7 69.1,75.33 15.63,29.85 23.45,63.81 23.45,102.51 0,61.54 -17.41,110.12 -52.22,146.14 -34.99,36.02 -82.24,53.93 -141.92,53.93l-357.91 0zm695.76 0l0 -665.65 451.88 0 0 76.57 -380.48 0 0 195.13 230.2 0 0 76.57 -230.2 0 0 240.82 403.92 0 0 76.57 -475.32 0zm581.72 0l0 -665.65 37.48 0 372.84 497.49 0 -497.49 71.4 0 0 665.65 -36.41 0 -373.9 -497.49 0 497.49 -71.4 0zm654.19 0l0 -669.36 72.47 0 0 669.36 -72.47 0z"/>
  </g>
  <path class="fil2" d="M2483.56 1077.12l414.96 5.66 -65.55 -132.72 -278.23 -1.58 138.13 -249.61 -167.2 -314.37 -202.97 379.59 160.86 313.04zm658.33 348.47l343.33 0.67 -753.96 -1426.25 -172.07 321.81 582.71 1103.77zm-1173.09 0.37l337 -0.22 148.36 -283.3 -164.77 -316.06 -320.59 599.58z"/>
  <path class="fil1 str0" d="M18.96 2470.71l0 -205.37 150.38 0 0 21.75 -126.79 0 0 67.23 123.2 0 0 20.9 -123.2 0 0 74.01 126.79 0 0 21.47 -150.38 0zm288.44 0l0 -205.37 36.56 0 116.17 183.29 0 -183.29 23.59 0 0 205.37 -36.56 0 -116.17 -183.58 0 183.58 -23.59 0zm320.19 -137.53c0,-26.23 5.65,-44.49 17.01,-54.85 11.3,-10.36 31.4,-15.54 60.19,-15.54l27.23 0c26.39,0 45.9,4.28 58.43,12.9 12.53,8.62 18.77,22.04 18.77,40.26l0 8.71 -24.47 0 0 -2.5c0,-14.12 -3.73,-24.01 -11.25,-29.57 -7.47,-5.56 -21.77,-8.33 -42.9,-8.33l-18.87 0c-14.7,0 -25.26,0.8 -31.7,2.35 -6.44,1.55 -11.9,4.19 -16.41,7.86 -4.13,3.39 -7.08,7.91 -8.75,13.61 -1.67,5.7 -2.51,15.96 -2.51,30.74l0 58.53c0,14.69 0.84,24.9 2.51,30.6 1.67,5.7 4.62,10.22 8.75,13.61 4.52,3.67 9.87,6.31 16.12,7.86 6.24,1.55 16.9,2.35 31.99,2.35l18.87 0c13.61,0 23.29,-0.71 28.94,-2.07 5.65,-1.36 10.56,-3.72 14.69,-7.01 3.84,-3.15 6.54,-7.39 8.16,-12.81 1.58,-5.46 2.36,-14.74 2.36,-27.87l0 -12.67 -59.51 0 0 -20.9 83.98 0 0 34.42c0,26.32 -5.65,44.63 -17,54.95 -11.3,10.31 -31.4,15.44 -60.2,15.44l-27.23 0c-28.8,0 -48.89,-5.13 -60.19,-15.44 -11.35,-10.31 -17.01,-28.62 -17.01,-54.95l0 -69.68zm324.61 137.53l0 -205.37 150.38 0 0 21.75 -126.79 0 0 67.23 123.2 0 0 20.9 -123.2 0 0 74.01 126.79 0 0 21.47 -150.38 0zm288.44 0l0 -205.37 36.56 0 116.18 183.29 0 -183.29 23.59 0 0 205.37 -36.56 0 -116.17 -183.58 0 183.58 -23.59 0zm328.44 0l0 -205.37 23.59 0 0 88.7 123.55 0 0 -88.7 23.59 0 0 205.37 -23.59 0 0 -95.2 -123.55 0 0 95.2 -23.59 0zm352.28 -72.88l92.88 0 -42.8 -110.69 -7.62 0 -42.46 110.69zm-52.43 72.88l79.22 -205.37 39.02 0 79.61 205.37 -24.47 0 -20.44 -52.54 -108.46 0 -20 52.54 -24.47 0zm418.67 -183.62l-68.41 0 0 82.2 68.41 0c17.84,0 29.53,-2.12 35.04,-6.36 5.55,-4.24 8.31,-11.82 8.31,-22.74l0 -24.01c0,-11.11 -2.65,-18.74 -8.01,-22.88 -5.31,-4.15 -17.1,-6.21 -35.33,-6.21zm-92 183.62l0 -205.37 96.76 0c24.08,0 40.64,3.44 49.74,10.27 9.09,6.82 13.61,19.02 13.61,36.58l0 31.03c0,10.78 -2.26,19.25 -6.84,25.38 -4.57,6.12 -11.5,9.93 -20.83,11.49 10.17,2.31 17.35,6.5 21.47,12.57 4.13,6.07 6.19,15.63 6.19,28.72l0 49.34 -24.77 0 0 -42.33c0,-14.69 -2.41,-24.63 -7.27,-29.85 -4.86,-5.18 -14.35,-7.77 -28.45,-7.77l-76.03 0 0 79.95 -23.59 0zm306.14 0l0 -205.37 23.88 0 0 205.37 -23.88 0zm205.44 -72.88l92.88 0 -42.8 -110.69 -7.62 0 -42.46 110.69zm-52.44 72.88l79.22 -205.37 39.02 0 79.61 205.37 -24.47 0 -20.44 -52.54 -108.46 0 -20 52.54 -24.47 0zm525.9 0l0 -205.37 38.97 0 73.42 183.01 72.73 -183.01 39.27 0 0 205.37 -23.59 0 0 -186.21 -74.01 186.21 -29.19 0 -74.01 -186.21 0 186.21 -23.59 0zm376.26 0l0 -205.37 150.38 0 0 21.75 -126.79 0 0 67.23 123.2 0 0 20.9 -123.2 0 0 74.01 126.79 0 0 21.47 -150.38 0zm281.66 -137.53c0,-26.32 5.26,-44.63 15.77,-54.95 10.52,-10.31 29.04,-15.44 55.68,-15.44l25.06 0c26.39,0 44.92,4.42 55.58,13.32 10.67,8.9 15.97,23.96 15.97,45.24l0 8.95 -24.47 0 0 -5.65c0,-15.54 -3.29,-26.13 -9.93,-31.83 -6.63,-5.7 -19.61,-8.57 -38.92,-8.57l-16.56 0c-12.93,0 -22.36,0.75 -28.3,2.26 -5.9,1.55 -10.81,4.1 -14.75,7.67 -3.93,3.49 -6.68,8.05 -8.3,13.7 -1.58,5.65 -2.36,15.96 -2.36,30.93l0 58.48c0,14.88 0.78,25.14 2.36,30.84 1.62,5.65 4.37,10.22 8.3,13.7 3.93,3.58 8.7,6.12 14.35,7.68 5.6,1.51 15.18,2.26 28.7,2.26l16.56 0c19.81,0 32.98,-2.97 39.51,-8.95 6.49,-5.98 9.78,-17.47 9.78,-34.37 0,-2.59 -0.05,-4.57 -0.1,-5.93 -0.05,-1.37 -0.1,-2.69 -0.19,-3.86l24.32 0 0 13.51c0,22.84 -5.16,38.75 -15.48,47.65 -10.32,8.94 -29.05,13.42 -56.07,13.42l-25.06 0c-26.64,0 -45.16,-5.18 -55.68,-15.49 -10.52,-10.31 -15.77,-28.63 -15.77,-54.95l0 -69.63zm337.92 64.64l92.88 0 -42.8 -110.69 -7.62 0 -42.46 110.69zm-52.43 72.88l79.22 -205.37 39.02 0 79.61 205.37 -24.47 0 -20.44 -52.54 -108.46 0 -20 52.54 -24.47 0zm58.97 -223.17l28.85 -48.02 21.92 0 28.85 48.02 -13.27 0 -26.54 -36.16 -26.53 36.16 -13.27 0zm267.7 223.17l0 -205.37 36.56 0 116.17 183.29 0 -183.29 23.59 0 0 205.37 -36.56 0 -116.17 -183.58 0 183.58 -23.59 0zm328.44 0l0 -205.37 23.88 0 0 205.37 -23.88 0zm168.93 -137.53c0,-26.32 5.26,-44.63 15.77,-54.95 10.52,-10.31 29.05,-15.44 55.68,-15.44l25.06 0c26.39,0 44.92,4.42 55.58,13.32 10.67,8.9 15.97,23.96 15.97,45.24l0 8.95 -24.47 0 0 -5.65c0,-15.54 -3.29,-26.13 -9.93,-31.83 -6.63,-5.7 -19.61,-8.57 -38.92,-8.57l-16.56 0c-12.92,0 -22.36,0.75 -28.3,2.26 -5.9,1.55 -10.81,4.1 -14.74,7.67 -3.93,3.49 -6.69,8.05 -8.31,13.7 -1.58,5.65 -2.36,15.96 -2.36,30.93l0 58.48c0,14.88 0.78,25.14 2.36,30.84 1.62,5.65 4.37,10.22 8.31,13.7 3.93,3.58 8.7,6.12 14.35,7.68 5.6,1.51 15.19,2.26 28.7,2.26l16.56 0c19.81,0 32.98,-2.97 39.51,-8.95 6.49,-5.98 9.78,-17.47 9.78,-34.37 0,-2.59 -0.05,-4.57 -0.1,-5.93 -0.05,-1.37 -0.1,-2.69 -0.19,-3.86l24.32 0 0 13.51c0,22.84 -5.16,38.75 -15.48,47.65 -10.32,8.94 -29.04,13.42 -56.07,13.42l-25.06 0c-26.63,0 -45.16,-5.18 -55.68,-15.49 -10.52,-10.31 -15.77,-28.63 -15.77,-54.95l0 -69.63zm332.77 64.64l92.88 0 -42.8 -110.69 -7.62 0 -42.46 110.69zm-52.43 72.88l79.22 -205.37 39.02 0 79.61 205.37 -24.47 0 -20.44 -52.54 -108.46 0 -20 52.54 -24.47 0z"/>
 </g>
</svg>
